<?xml version="1.0" encoding="UTF-8" standalone="no"?>
<!-- Created with Inkscape (http://www.inkscape.org/) -->

<svg
   xmlns:dc="http://purl.org/dc/elements/1.1/"
   xmlns:cc="http://creativecommons.org/ns#"
   xmlns:rdf="http://www.w3.org/1999/02/22-rdf-syntax-ns#"
   xmlns:svg="http://www.w3.org/2000/svg"
   xmlns="http://www.w3.org/2000/svg"
   xmlns:sodipodi="http://sodipodi.sourceforge.net/DTD/sodipodi-0.dtd"
   xmlns:inkscape="http://www.inkscape.org/namespaces/inkscape"
   width="400"
   height="400"
   id="svg2"
   version="1.1"
   inkscape:version="0.48.2 r9819"
   sodipodi:docname="whoppy.svg"
   inkscape:export-filename="/Users/wbowling/Work/whoppy/whoppy.png"
   inkscape:export-xdpi="57.599998"
   inkscape:export-ydpi="57.599998">
  <defs
     id="defs4">
    <inkscape:path-effect
       effect="spiro"
       id="path-effect3013"
       is_visible="true" />
    <inkscape:path-effect
       is_visible="true"
       id="path-effect3009"
       effect="spiro" />
    <inkscape:path-effect
       effect="spiro"
       id="path-effect3005"
       is_visible="true" />
    <inkscape:path-effect
       effect="spiro"
       id="path-effect3002"
       is_visible="true" />
    <inkscape:path-effect
       effect="spiro"
       id="path-effect2998"
       is_visible="true" />
    <inkscape:path-effect
       effect="spiro"
       id="path-effect2994"
       is_visible="true" />
  </defs>
  <sodipodi:namedview
     id="base"
     pagecolor="#ffffff"
     bordercolor="#666666"
     borderopacity="1.0"
     inkscape:pageopacity="0"
     inkscape:pageshadow="2"
     inkscape:zoom="0.44438771"
     inkscape:cx="100.18139"
     inkscape:cy="188.71312"
     inkscape:document-units="px"
     inkscape:current-layer="layer1"
     showgrid="false"
     inkscape:window-width="1440"
     inkscape:window-height="770"
     inkscape:window-x="0"
     inkscape:window-y="698"
     inkscape:window-maximized="1" />
  <metadata
     id="metadata7">
    <rdf:RDF>
      <cc:Work
         rdf:about="">
        <dc:format>image/svg+xml</dc:format>
        <dc:type
           rdf:resource="http://purl.org/dc/dcmitype/StillImage" />
        <dc:title></dc:title>
      </cc:Work>
    </rdf:RDF>
  </metadata>
  <g
     inkscape:label="Layer 1"
     inkscape:groupmode="layer"
     id="layer1"
     transform="translate(0,-652.36218)">
    <path
       style="fill:#98fc66;fill-opacity:1;fill-rule:nonzero;stroke:#339900;stroke-width:4.22981405;stroke-linecap:round;stroke-linejoin:round;stroke-miterlimit:4;stroke-opacity:1;stroke-dasharray:none;stroke-dashoffset:0"
       d="m 10.956735,782.3787 43.457919,-7.74904 24.493443,57.80443 0.866608,-38.11733 22.750915,-6.30312 18.4659,36.48886 0.45874,-59.61894 42.50942,-11.13876 -5.53839,101.37293 -39.33444,8.29673 -20.266376,-33.46427 2.218846,39.45962 -37.716496,6.64663 z"
       id="path2985"
       inkscape:connector-curvature="0"
       sodipodi:nodetypes="cccccccccccccc" />
    <path
       style="fill:#98fc66;fill-opacity:1;fill-rule:nonzero;stroke:#339900;stroke-width:4.22981405;stroke-linecap:round;stroke-linejoin:round;stroke-miterlimit:4;stroke-opacity:1;stroke-dasharray:none;stroke-dashoffset:0"
       d="m 174.34362,752.79277 21.2143,96.53384 34.44848,-6.61444 -6.12409,-31.1196 20.00192,-6.66829 9.85027,31.14828 36.70714,-9.57816 -24.26756,-94.60812 -34.69192,8.44709 6.21362,26.93526 -19.4829,6.27096 -8.07845,-30.44669 z"
       id="path2987"
       inkscape:connector-curvature="0"
       sodipodi:nodetypes="ccccccccccccc" />
    <path
       style="fill:#98fc66;fill-opacity:1;fill-rule:nonzero;stroke:#339900;stroke-width:4.22981405;stroke-linecap:round;stroke-linejoin:round;stroke-miterlimit:4;stroke-opacity:1;stroke-dasharray:none;stroke-dashoffset:0"
       d="m 316.25468,715.68746 c -12.65814,3.58263 -23.24831,13.30007 -28.68986,25.27728 -5.44155,11.9772 -5.87358,25.98013 -2.0115,38.55583 3.61774,11.78005 11.03725,22.49219 21.26096,29.37211 10.22371,6.87993 23.25962,9.71557 35.26647,6.94192 12.5374,-2.89621 23.37789,-11.79795 29.40032,-23.16918 6.02243,-11.37123 7.34615,-24.98677 4.45069,-37.52435 -3.00097,-12.99445 -10.59503,-25.03395 -21.55771,-32.62876 -10.96269,-7.59482 -25.28697,-10.4568 -38.11937,-6.82485 m 7.5698,21.05555 c 3.00203,-0.61791 6.18845,-0.0368 8.91882,1.35572 2.73038,1.39249 5.0207,3.56074 6.80546,6.05245 3.56952,4.98342 5.11233,11.0911 6.67241,17.01918 1.65047,6.27154 3.41585,12.70739 2.66656,19.14904 -0.37465,3.22083 -1.40041,6.40101 -3.24685,9.06647 -1.84644,2.66547 -4.54847,4.78849 -7.67125,5.66159 -3.20652,0.89651 -6.71615,0.43365 -9.72841,-0.98471 -3.01227,-1.41836 -5.54363,-3.74582 -7.48407,-6.45141 -3.88088,-5.41116 -5.39313,-12.11639 -6.83007,-18.61848 -1.35913,-6.15001 -2.7347,-12.49425 -1.62497,-18.69411 0.55486,-3.09994 1.75056,-6.11927 3.71344,-8.5819 1.96288,-2.46263 4.72439,-4.33895 7.80893,-4.97384"
       id="path2989"
       inkscape:connector-curvature="0"
       sodipodi:nodetypes="aaaaaaaaaa"
       inkscape:path-effect="#path-effect2994"
       inkscape:original-d="m 316.25468,715.68746 c -22.76063,6.27889 -37.12951,41.11418 -30.70136,63.83311 6.09728,21.5496 34.80338,41.75715 56.52743,36.31403 22.47048,-5.63017 39.33359,-38.18658 33.85101,-60.69353 -5.64384,-23.16911 -36.68915,-45.7952 -59.67708,-39.45361 z m 7.5698,21.05555 c 10.77545,-2.43385 19.64686,13.72817 22.39669,24.42735 2.89312,11.25668 3.0005,30.96599 -8.25154,33.8771 -11.44082,2.95997 -21.42048,-14.53163 -24.04255,-26.0546 -2.495,-10.96452 -1.0711,-29.77237 9.8974,-32.24985 z" />
    <path
       style="fill:#98fc66;fill-opacity:1;fill-rule:nonzero;stroke:#339900;stroke-width:4.22981405;stroke-linecap:round;stroke-linejoin:round;stroke-miterlimit:4;stroke-opacity:1;stroke-dasharray:none;stroke-dashoffset:0"
       d="m 143.85466,879.73697 c -13.69773,-7.41011 -30.62186,-8.57559 -45.206058,-3.11312 -14.584201,5.46247 -26.578442,17.45925 -32.037832,32.0446 l 31.663286,99.14365 43.564394,-10.03668 -18.54018,-39.38289 c 7.89707,0.55492 15.94415,-1.23005 22.86593,-5.07202 6.92177,-3.84198 12.69309,-9.727 16.3993,-16.72241 3.70621,-6.99541 5.33386,-15.07578 4.62498,-22.96052 -0.70887,-7.88475 -3.75169,-15.54522 -8.64623,-21.76738 -3.95365,-5.02606 -9.06312,-9.09054 -14.68759,-12.13323 m -28.29509,29.09647 c 2.79639,0.7538 5.4701,2.01815 7.73309,3.82561 2.26299,1.80746 4.10559,4.1677 5.16867,6.86174 1.30782,3.31427 1.38891,7.09688 0.22431,10.46415 -1.16459,3.36726 -3.56529,6.29153 -6.64126,8.08963 -3.07597,1.79811 -6.80194,2.45528 -10.30746,1.81799 -3.50551,-0.63729 -6.76177,-2.5638 -9.00807,-5.32947 L 95.116704,912.4547 c 5.842126,-4.11757 13.541836,-5.4815 20.442866,-3.62126"
       id="path2996"
       inkscape:path-effect="#path-effect3005"
       inkscape:original-d="m 143.85466,879.73697 c -26.32183,-2.94276 -77.24389,28.93148 -77.24389,28.93148 l 31.663286,99.14365 43.564394,-10.03668 -18.54018,-39.38289 c 0,0 43.72765,-31.10796 35.24398,-66.52233 -1.8558,-7.74688 -7.31747,-11.30925 -14.68759,-12.13323 z m -28.29509,29.09647 c 5.7049,0.68051 10.88964,3.49666 12.90176,10.68735 5.3656,19.1752 -25.73248,15.0423 -25.73248,15.0423 L 95.116704,912.4547 c 0,0 10.934676,-4.75537 20.442866,-3.62126 z"
       inkscape:connector-curvature="0" />
    <path
       inkscape:connector-curvature="0"
       inkscape:original-d="m 251.31256,864.9973 c -26.32183,-2.94276 -77.2439,28.93147 -77.2439,28.93147 l 31.6633,99.14359 43.5644,-10.03666 -18.54019,-39.38285 c 0,0 43.72766,-31.10793 35.24397,-66.52232 -1.8558,-7.74688 -7.31747,-11.30924 -14.68758,-12.13323 z m -28.29509,29.09647 c 5.70491,0.68051 10.88965,3.49665 12.90176,10.68735 5.3656,19.17518 -25.73247,15.0423 -25.73247,15.0423 L 202.57459,897.715 c 0,0 10.93469,-4.75535 20.44288,-3.62123 z"
       inkscape:path-effect="#path-effect3009"
       id="path3007"
       d="m 251.31256,864.9973 c -13.69773,-7.41012 -30.62186,-8.5756 -45.20606,-3.11313 -14.58421,5.46247 -26.57845,17.45924 -32.03784,32.0446 l 31.6633,99.14359 43.5644,-10.03666 -18.54019,-39.38285 c 7.89707,0.55492 15.94415,-1.23005 22.86592,-5.07203 6.92177,-3.84197 12.69308,-9.727 16.39929,-16.7224 3.70622,-6.99541 5.33386,-15.07577 4.62499,-22.96052 -0.70888,-7.88474 -3.7517,-15.54521 -8.64623,-21.76737 -3.95365,-5.02606 -9.06311,-9.09054 -14.68758,-12.13323 m -28.29509,29.09647 c 2.79639,0.7538 5.4701,2.01815 7.73309,3.82561 2.26299,1.80746 4.10559,4.1677 5.16867,6.86174 1.30782,3.31427 1.38891,7.09687 0.22432,10.46414 -1.1646,3.36727 -3.5653,6.29153 -6.64127,8.08964 -3.07597,1.7981 -6.80193,2.45527 -10.30745,1.81799 -3.50551,-0.63729 -6.76177,-2.5638 -9.00807,-5.32947 L 202.57459,897.715 c 5.84213,-4.11756 13.54185,-5.48148 20.44288,-3.62123"
       style="fill:#98fc66;fill-opacity:1;fill-rule:nonzero;stroke:#339900;stroke-width:4.22981405;stroke-linecap:round;stroke-linejoin:round;stroke-miterlimit:4;stroke-opacity:1;stroke-dasharray:none;stroke-dashoffset:0" />
    <path
       style="fill:#98fc66;fill-opacity:1;fill-rule:nonzero;stroke:#339900;stroke-width:4.22981405;stroke-linecap:round;stroke-linejoin:round;stroke-miterlimit:4;stroke-opacity:1;stroke-dasharray:none;stroke-dashoffset:0"
       d="m 263.90154,853.09742 48.72083,47.82715 21.11818,79.29255 42.16247,-7.79793 -12.9986,-80.8516 28.66295,-66.35077 -41.61965,3.82641 -19.34842,38.1882 -25.60992,-25.73299 -41.08784,11.59898"
       id="path3011"
       inkscape:path-effect="#path-effect3013"
       inkscape:original-d="m 263.90154,853.09742 48.72083,47.82715 21.11818,79.29255 42.16247,-7.79793 -12.9986,-80.8516 28.66295,-66.35077 -41.61965,3.82641 -19.34842,38.1882 -25.60992,-25.73299 z"
       inkscape:connector-curvature="0"
       sodipodi:nodetypes="cccccccccc" />
  </g>
</svg>
